<?xml version="1.0" standalone="no"?>
<!DOCTYPE svg PUBLIC "-//W3C//DTD SVG 20010904//EN"
 "http://www.w3.org/TR/2001/REC-SVG-20010904/DTD/svg10.dtd">
<svg version="1.0" xmlns="http://www.w3.org/2000/svg"
 width="800.000000pt" height="800.000000pt" viewBox="0 0 800.000000 800.000000"
 preserveAspectRatio="xMidYMid meet">
<metadata>
Created by potrace 1.11, written by Peter Selinger 2001-2013
</metadata>
<g transform="translate(0.000000,800.000000) scale(0.100000,-0.100000)"
fill="#000000" stroke="none">
<path d="M0 4000 l0 -4000 4000 0 4000 0 0 4000 0 4000 -4000 0 -4000 0 0
-4000z m4384 3560 c444 -51 843 -168 1224 -359 1576 -790 2345 -2604 1816
-4281 -596 -1890 -2608 -2939 -4494 -2344 -1793 566 -2843 2411 -2414 4244
239 1024 938 1906 1886 2381 609 305 1321 434 1982 359z"/>
<path d="M3850 7428 c-344 -20 -713 -100 -1044 -224 -279 -105 -630 -298 -876
-483 -472 -353 -837 -826 -1085 -1407 -194 -452 -301 -1027 -274 -1460 31
-493 146 -927 364 -1369 352 -716 870 -1229 1588 -1575 608 -293 1279 -409
1882 -325 731 102 1392 408 1933 895 389 350 739 900 923 1452 108 322 153
568 183 993 5 79 -10 332 -29 470 -55 399 -162 748 -340 1110 -336 682 -825
1183 -1492 1527 -547 283 -1188 430 -1733 396z m-1050 -3328 l0 -930 508 0
507 0 160 228 c88 125 202 288 255 362 53 74 253 358 445 630 191 272 371 525
398 563 l49 67 89 0 89 0 0 -1025 0 -1025 -100 0 -100 0 0 250 0 250 -407 -2
-408 -3 -101 -150 c-56 -82 -132 -194 -168 -247 l-67 -98 -674 0 -675 0 0
1030 0 1030 100 0 100 0 0 -930z m-370 -105 l0 -1025 -100 0 -100 0 0 250 0
250 -407 -2 -408 -3 -165 -247 -165 -247 -137 -1 c-76 0 -138 2 -138 4 0 4
402 575 711 1011 31 44 177 251 324 460 147 209 299 424 337 478 l70 97 89 0
89 0 0 -1025z m3525 718 c113 -170 232 -346 264 -393 33 -47 192 -283 355
-525 163 -242 301 -441 306 -443 6 -2 10 303 10 832 l0 836 105 0 105 0 0
-1025 0 -1025 -142 0 -143 1 -195 292 c-108 161 -362 538 -565 839 l-370 547
-6 -592 c-3 -325 -7 -703 -8 -839 l-1 -248 -100 0 -100 0 0 1025 0 1025 139 0
140 0 206 -307z"/>
<path d="M4933 4427 c-78 -116 -232 -346 -343 -509 l-200 -298 350 0 350 0 0
510 c0 281 -3 510 -7 510 -5 0 -72 -96 -150 -213z"/>
<path d="M1869 4137 l-345 -512 344 -3 c190 -1 347 -1 349 1 2 2 2 234 1 515
l-3 511 -346 -512z"/>
</g>
</svg>
